HIERARCHY
ROOT Hips
{
	OFFSET 0 0 0
	CHANNELS 6 Xposition Yposition Zposition Zrotation Yrotation Xrotation
	JOINT LeftThigh
	{
		OFFSET 8.209213 0 -5.776854
		CHANNELS 3 Zrotation Yrotation Xrotation
		JOINT LeftLeg
		{
			OFFSET 0 0 -41.350112
			CHANNELS 3 Zrotation Yrotation Xrotation
			JOINT LeftFoot
			{
				OFFSET 0 0 -38.420225
				CHANNELS 3 Zrotation Yrotation Xrotation
				End Site
				{
					OFFSET 0 -13.011281 -4.889596
				}
			}
		}
	}
	JOINT RightThigh
	{
		OFFSET -8.209213 0 -5.776854
		CHANNELS 3 Zrotation Yrotation Xrotation
		JOINT RightLeg
		{
			OFFSET 0 0 -41.350112
			CHANNELS 3 Zrotation Yrotation Xrotation
			JOINT RightFoot
			{
				OFFSET 0 0 -38.420225
				CHANNELS 3 Zrotation Yrotation Xrotation
				End Site
				{
					OFFSET 0 -13.011281 -4.889596
				}
			}
		}
	}
	JOINT SpineLow
	{
		OFFSET 0 0 4.606742
		CHANNELS 3 Zrotation Yrotation Xrotation
		JOINT SpineMid
		{
			OFFSET 0 0 12.592067
			CHANNELS 3 Zrotation Yrotation Xrotation
			JOINT Chest
			{
				OFFSET 0 0 12.592067
				CHANNELS 3 Zrotation Yrotation Xrotation
				JOINT LeftShoulder
				{
					OFFSET 7.370787 1.382022 9.213483
					CHANNELS 3 Zrotation Yrotation Xrotation
					JOINT LeftArm
					{
						OFFSET 8.937079 0 4.146067
						CHANNELS 3 Zrotation Yrotation Xrotation
						JOINT LeftForearm
						{
							OFFSET 0 0 25.158337
							CHANNELS 3 Zrotation Yrotation Xrotation
							JOINT LeftHand
							{
								OFFSET 0 0 24.597236
								CHANNELS 3 Zrotation Yrotation Xrotation
							}
						}
					}
				}
				JOINT RightShoulder
				{
					OFFSET -7.370787 1.382022 9.213483
					CHANNELS 3 Zrotation Yrotation Xrotation
					JOINT RightArm
					{
						OFFSET -8.937079 0 4.146067
						CHANNELS 3 Zrotation Yrotation Xrotation
						JOINT RightForearm
						{
							OFFSET 0 0 -25.158337
							CHANNELS 3 Zrotation Yrotation Xrotation
							JOINT RightHand
							{
								OFFSET 0 0 -24.597236
								CHANNELS 3 Zrotation Yrotation Xrotation
							}
						}
					}
				}
				JOINT Neck
				{
					OFFSET 0 0 14.741573
					CHANNELS 3 Zrotation Yrotation Xrotation
					JOINT Head
					{
						OFFSET 0 0 11.05618
						CHANNELS 3 Zrotation Yrotation Xrotation
						End Site
						{
							OFFSET 0 0 7.325843
						}
					}
				}
			}
		}
	}
}
MOTION
Frames: 9
Frame Time: 0.01
72.7138178758413 89.6761563080807 -52.3078941313392 179.643011 11.837615 88.52202 11.869882 -11.567263 -0.125927 0.466982 1.449206 13.719243 -6.557607 1.10124 0.490919 4.3583 15.120382 -12.974889 -7.453165 -1.327878 7.31683 17.769369 -3.667036 -1.333758 3.109498 0.010377 0.919932 8.498487 -0.089819 2.511099 8.498487 -0.089819 2.511099 8.117382 -2.405343 12.92244 83.888726 14.963181 117.320816 14.423692 37.774784 138.014041 168.657647 -80.993984 -131.062608 13.760412 -10.974222 9.042389 -123.87492 76.503297 164.982646 -13.601536 13.571356 36.391405 98.344995 -36.01083 -48.435461 -28.578769 -4.480518 -0.39135 -21.425967 -3.35078 -0.504847
72.7682309576318 89.6251145740324 -52.2313593627759 179.339711 12.181573 88.694064 11.556755 -11.204154 -0.241591 0.856045 1.396154 13.805873 -6.577038 1.210078 0.452202 5.56877 15.53429 -13.076803 -8.042551 -1.289524 7.451217 17.629603 -3.661947 -1.327956 2.914098 -0.013274 0.909845 7.963609 -0.145721 2.481227 7.963609 -0.145721 2.481227 9.245025 -2.080598 12.93366 84.243128 15.208969 117.565056 14.488788 37.760236 137.937919 166.13909 -80.812733 -128.933403 15.055221 -10.597212 9.105554 -115.395466 76.767154 173.03299 -10.986734 12.731584 36.335559 98.404247 -35.724864 -48.851274 -27.705773 -4.125938 -0.52754 -20.773877 -3.078038 -0.584473
72.6856332145932 89.6357669841171 -51.8913901692573 179.230316 12.538587 88.794458 10.799098 -10.940419 -0.449188 1.968245 1.204561 14.016986 -6.704631 1.225684 0.436003 6.763431 15.765848 -13.141379 -8.499717 -1.268691 7.586768 17.437997 -3.667342 -1.318026 2.874569 -0.047622 0.881883 7.854439 -0.234644 2.400981 7.854439 -0.234644 2.400981 9.667936 -1.774041 12.953058 84.129336 15.183383 117.595704 14.270417 37.661608 137.629914 164.121837 -80.457597 -127.304846 15.286148 -10.396226 9.38114 -103.305306 76.577057 -175.283479 -8.153679 12.286649 36.03822 98.591814 -35.764146 -48.922734 -27.404194 -3.886202 -0.512224 -20.548494 -2.898592 -0.560063
72.6902749192607 89.641993935272 -51.5514942876851 179.213981 12.943466 89.013659 9.714279 -10.880638 -0.691658 3.35022 1.137024 14.198093 -6.69876 1.274452 0.41088 7.524052 16.036007 -13.199912 -8.595498 -1.484183 7.619852 17.200126 -3.618765 -1.349991 2.847991 -0.077786 0.862589 7.780837 -0.313719 2.34491 7.780837 -0.313719 2.34491 9.968879 -1.514576 12.85335 83.945327 15.123939 117.641762 13.773867 37.66132 137.508953 160.735229 -80.048652 -124.287403 15.679198 -10.196205 9.38526 -91.84312 75.925518 -164.104876 -5.449194 12.265214 35.786174 99.077788 -35.856577 -49.066385 -27.253873 -3.715355 -0.372217 -20.435475 -2.776465 -0.446205
72.6607090366103 89.664937202356 -51.3758972339164 179.16067 13.162649 89.024448 8.390443 -10.782317 -0.45757 4.918077 1.038692 14.053795 -6.829097 1.2739 0.4098 8.005317 16.229962 -13.128978 -8.609216 -1.591812 7.549198 17.040941 -3.621862 -1.34045 2.800583 -0.083914 0.88735 7.650906 -0.331628 2.412054 7.650906 -0.331628 2.412054 10.329922 -1.243119 12.636425 83.693817 15.075784 117.609338 13.169739 37.569828 137.104723 158.677929 -79.658561 -122.670473 16.093366 -10.094863 9.230333 -83.409782 75.004012 -156.016142 -3.218728 12.417598 35.776639 99.647146 -35.936832 -49.248308 -27.014917 -3.758816 -0.379631 -20.256226 -2.80884 -0.452229
72.5628771588477 89.7105558208069 -51.4364292028416 179.092399 13.364943 89.066906 7.108209 -10.530159 0.049117 6.484878 0.842741 13.56145 -6.957588 1.251436 0.421597 7.013894 16.274078 -12.343518 -7.546286 -2.027213 6.711122 17.181602 -3.444006 -1.624514 2.73574 -0.093873 0.915912 7.47315 -0.359675 2.489284 7.47315 -0.359675 2.489285 10.818823 -0.950039 12.370681 83.329163 14.920319 117.57114 12.972089 37.281035 136.973779 158.409293 -78.953306 -122.709634 16.693689 -9.926234 9.065235 -78.609654 74.233098 -151.428874 -1.800382 12.648374 35.835321 100.146711 -36.051859 -49.389592 -26.732751 -3.811406 -0.428613 -20.044816 -2.846263 -0.48958
72.4755179124874 89.7436585380019 -51.5903892122367 178.96747 13.559053 89.067868 6.199808 -10.212094 0.617645 7.514002 0.708048 12.985597 -7.013677 1.218359 0.42703 6.888177 16.284061 -12.23273 -7.285273 -1.971531 6.451131 17.211384 -3.444638 -1.659645 2.66042 -0.107195 0.960116 7.266499 -0.398061 2.608978 7.266499 -0.398061 2.608978 11.341852 -0.548723 12.10131 83.255011 14.901113 117.659831 12.601805 37.207695 136.680466 157.058685 -78.670248 -121.557301 17.314496 -9.627346 8.904689 -77.341843 73.846348 -150.189174 -1.425448 12.833289 35.788336 100.598329 -36.14182 -49.538865 -26.412747 -3.862239 -0.598194 -19.805821 -2.877196 -0.617174
72.3930950391955 89.7802862505204 -51.718435909258 178.848676 13.798574 89.121705 5.672382 -9.926715 1.082166 8.418943 0.61477 12.352139 -7.152662 1.195211 0.453037 5.554343 16.208001 -11.587774 -5.821553 -2.194166 5.32383 17.325039 -3.432219 -1.795244 2.62612 -0.103306 1.001059 7.172621 -0.390535 2.721407 7.172621 -0.390535 2.721407 11.639498 -0.306161 11.764878 83.288921 14.869167 117.771069 12.568118 36.976181 136.523122 156.943437 -78.326171 -121.524344 17.623868 -9.484168 8.669637 -78.296839 73.943788 -151.363816 -1.667255 13.068501 35.920438 100.988737 -36.13782 -49.699481 -26.183979 -3.977102 -0.779272 -19.635164 -2.955869 -0.756693
72.3147946480529 89.8035012791087 -51.8581386859522 178.751997 14.102528 89.193362 5.660572 -9.672162 1.394511 8.517177 0.585696 11.859482 -7.16257 1.146231 0.440058 4.984527 16.110435 -11.621925 -5.279827 -2.109448 5.031613 17.48986 -3.444082 -1.84866 2.64784 -0.076451 1.013979 7.232988 -0.319547 2.759447 7.232988 -0.319547 2.759447 11.682126 -0.280435 11.571373 83.243326 14.841354 117.861095 12.435875 36.950418 136.443132 156.199317 -78.131286 -120.772439 17.706324 -9.463348 8.534679 -80.471314 74.282543 -153.558134 -2.335882 13.204129 35.997629 101.242166 -36.068308 -49.818367 -26.157207 -4.131083 -0.888656 -19.615413 -3.066937 -0.845318
